<?xml version="1.0" standalone="no"?>
<!DOCTYPE svg PUBLIC "-//W3C//DTD SVG 20010904//EN"
 "http://www.w3.org/TR/2001/REC-SVG-20010904/DTD/svg10.dtd">
<svg version="1.0" xmlns="http://www.w3.org/2000/svg"
 width="1024.000000pt" height="1024.000000pt" viewBox="0 0 1024.000000 1024.000000"
 preserveAspectRatio="xMidYMid meet">
<metadata>
Created by potrace 1.14, written by Peter Selinger 2001-2017
</metadata>
<g transform="translate(0.000000,1024.000000) scale(0.100000,-0.100000)"
fill="#000000" stroke="none">
<path d="M1475 10225 c-133 -21 -147 -24 -225 -45 -422 -117 -787 -397 -1012
-775 -50 -84 -119 -226 -133 -275 -1 -3 -13 -41 -27 -85 -29 -90 -56 -210 -66
-300 -4 -33 -7 -1671 -7 -3640 0 -3843 -3 -3633 49 -3833 155 -592 624 -1061
1221 -1219 33 -8 112 -24 175 -34 110 -17 271 -18 3705 -16 1975 1 3604 6
3620 10 17 4 65 15 109 23 442 88 840 363 1091 753 89 137 196 393 221 523 3
18 13 67 22 108 15 68 16 405 18 3670 2 3646 2 3616 -30 3790 -45 239 -188
540 -348 735 -56 68 -190 199 -263 257 -219 174 -501 300 -765 343 -25 4 -54
10 -65 14 -11 3 -1638 6 -3615 7 -2867 2 -3611 -1 -3675 -11z"/>
</g>
</svg>
